<svg data-v-423bf9ae="" xmlns="http://www.w3.org/2000/svg" viewBox="0 0 315 112" class="iconLeft"><!----><!----><!----><g data-v-423bf9ae="" id="8afa6120-3eb2-41c9-a5b1-e24aa8f68e60" fill="#713B28" transform="matrix(5.923000812530518,0,0,5.923000812530518,108.39957427978516,10.459603309631348)"><path d="M1.81 12.67L1.09 12.67L1.09 5.15L1.09 5.15Q1.09 2.54 3.98 2.54L3.98 2.54L3.98 2.54Q4.86 2.54 5.58 2.82L5.58 2.82L5.58 3.43L5.58 3.43Q4.90 3.16 3.97 3.16L3.97 3.16L3.97 3.16Q1.81 3.16 1.81 5.16L1.81 5.16L1.81 5.50L4.51 5.50L4.51 6.11L1.81 6.11L1.81 12.67ZM10.64 5.50L11.35 5.50L11.35 12.67L10.83 12.67L10.75 11.76L10.75 11.76Q9.51 12.67 7.98 12.67L7.98 12.67L7.98 12.67Q5.44 12.67 5.44 10.00L5.44 10.00L5.44 5.50L6.16 5.50L6.16 10.02L6.16 10.02Q6.16 12.03 8.02 12.03L8.02 12.03L8.02 12.03Q9.38 12.03 10.64 11.12L10.64 11.12L10.64 5.50ZM14.26 12.67L13.54 12.67L13.54 5.50L14.05 5.50L14.14 6.69L14.14 6.69Q15.22 5.50 16.55 5.50L16.55 5.50L16.55 6.07L16.55 6.07Q15.26 6.07 14.26 7.32L14.26 7.32L14.26 12.67ZM18.60 12.67L17.88 12.67L17.88 5.50L18.40 5.50L18.48 6.41L18.48 6.41Q19.86 5.50 21.18 5.50L21.18 5.50L21.18 5.50Q23.80 5.50 23.80 7.76L23.80 7.76L23.80 12.67L23.08 12.67L23.08 7.74L23.08 7.74Q23.08 6.14 21.14 6.14L21.14 6.14L21.14 6.14Q19.85 6.14 18.60 7.05L18.60 7.05L18.60 12.67ZM26.05 2.90L26.91 2.90L26.91 3.72L26.05 3.72L26.05 2.90ZM26.12 5.50L26.84 5.50L26.84 12.67L26.12 12.67L26.12 5.50ZM28.31 12.67L31.10 9.08L28.31 5.50L29.16 5.50L31.52 8.53L33.88 5.50L34.73 5.50L31.95 9.08L34.73 12.67L33.88 12.67L31.52 9.64L29.16 12.67L28.31 12.67Z"></path></g><!----><g data-v-423bf9ae="" id="ada2faf9-c295-41eb-bcd1-f9d9ef689bd0" transform="matrix(1.110595703125,0,0,1.110595703125,-9.394366264343262,0.49360817670822144)" stroke="none" fill="#713B28"><path d="M92.139 54.505c-6.827-10.277-15.203-4.646-26.324-1.971-11.121 2.673-8.447-14.782 1.548-30.267 9.994-15.485.212-21.116-7.32-16.049-4.99 3.357-30.06 14.671-34.49 3.801-1.167-2.864-2.306-5.93-4.136-7.76-.389-.39-.563-.141-.431.286.27.875.484 1.551.873 3.218.41 1.662.852 3.693 1.292 6.038.457 2.343.861 5.005 1.21 7.924.329 2.919.643 6.093.777 9.46.1 1.683.133 3.414.176 5.183.034.885.016 1.78.008 2.683l-.025 2.735c-.037 1.817-.053 3.641.006 5.483.028.918.08 1.836.157 2.742.076.903.181 1.805.369 2.63.093.41.206.803.343 1.135.136.329.303.586.428.701.132.105.167.133.379.15.201.02.548-.037.918-.143.76-.222 1.626-.611 2.51-1.002.89-.394 1.811-.808 2.779-1.158 1.928-.708 4.053-1.207 6.225-1.181 2.018.047 4.04.218 6.033.625 1.999.396 3.936 1.107 5.709 2.001 1.771.903 3.387 1.971 4.892 3.088 3.014 2.236 5.612 4.672 8.064 6.973 2.445 2.3 4.692 4.566 6.74 6.61.982.928 2.104 1.723 3.188 2.385 1.094.662 2.2 1.178 3.279 1.534 2.161.733 4.207.787 5.811.438.805-.172 1.498-.43 2.095-.682a11.081 11.081 0 0 0 1.451-.783L87.17 71c.138-.103.253-.191.346-.262l.284-.215.008-.007a.084.084 0 0 1 .118.017.085.085 0 0 1-.013.115l-.274.233-.335.285c-.138.109-.304.228-.487.365a10.6 10.6 0 0 1-3.578 1.704c-1.659.439-3.819.479-6.118-.19-2.293-.66-4.732-1.929-6.954-3.86-2.136-1.997-4.431-4.169-6.911-6.413-2.486-2.233-5.129-4.575-8.077-6.715-1.476-1.062-3.037-2.062-4.713-2.888a21.779 21.779 0 0 0-5.342-1.812c-1.869-.371-3.792-.526-5.721-.562-1.919-.013-3.824.436-5.633 1.11a49.98 49.98 0 0 0-2.688 1.109c-.893.386-1.782.79-2.733 1.064-.476.128-.974.233-1.488.192a2.186 2.186 0 0 1-1.397-.611c-.37-.362-.614-.812-.802-1.268a8.64 8.64 0 0 1-.419-1.403c-.398-1.899-.467-3.813-.511-5.693-.033-1.882.011-3.74.074-5.565.101-3.645.154-7.171.046-10.513-.066-3.343-.283-6.498-.512-9.406-.267-2.905-.557-5.565-.905-7.911a111.446 111.446 0 0 0-1.024-6.052c-.402-2.052-.631-3.175-1.136-3.892C18.902.011 16.888-.415 14.433.443 10.799 1.715 8.105 9.125 8.87 34.515c.731 24.271 14.15 54.462 40.674 57.09v2.86c-14.857.096-26.607 1.291-26.607 2.752 0 1.524 12.764 2.758 28.507 2.758 15.744 0 28.507-1.233 28.507-2.758 0-1.461-11.748-2.656-26.606-2.752v-2.656c29.034-.018 47.052-24.877 38.794-37.304z"></path></g><!----></svg>